<svg xmlns="http://www.w3.org/2000/svg" viewBox="0 0 428 142" width="428" height="142" preserveAspectRatio="xMidYMid meet" style="width: 100%; height: 100%; transform: translate3d(0px, 0px, 0px);"><defs><clipPath id="__lottie_element_21"><rect width="428" height="142" x="0" y="0"></rect></clipPath><clipPath id="__lottie_element_23"><path d="M0,0 L106,0 L106,212 L0,212z"></path></clipPath><clipPath id="__lottie_element_36"><path d="M0,0 L52,0 L52,54 L0,54z"></path></clipPath><clipPath id="__lottie_element_43"><path d="M0,0 L52,0 L52,154 L0,154z"></path></clipPath></defs><g clip-path="url(#__lottie_element_21)"><g transform="matrix(1,0,0,1,214,71)" opacity="1" style="display: block;"><g opacity="1" transform="matrix(1,0,0,1,0,0)"><path fill="rgb(255,74,90)" fill-opacity="1" d=" M-115.75,-37 C-115.75,-37 -157.75,-37 -157.75,-37 C-157.75,-37 -158.25,34.5 -158.25,34.5 C-158.25,34.5 -109.25,20.25 -109.25,20.25 C-109.25,20.25 -122.5,-1.75 -122.5,-1.75 C-122.5,-1.75 -115.75,-37 -115.75,-37z"></path></g></g><g transform="matrix(1,0,0,1,214,71)" opacity="1" style="display: block;"><g opacity="1" transform="matrix(1,0,0,1,0,0)"><path fill="rgb(255,255,255)" fill-opacity="1" d=" M214,-71 C214,-71 214,71 214,71 C214,71 -214,71 -214,71 C-214,71 -214,-71 -214,-71 C-214,-71 214,-71 214,-71z"></path></g></g><g transform="matrix(1,0,0,1,313.1499938964844,30.08099937438965)" opacity="1" style="display: block;"><g opacity="1" transform="matrix(1,0,0,1,0,0)"><path fill="rgb(46,48,56)" fill-opacity="1" d=" M0,-6.116000175476074 C3.375420570373535,-6.116000175476074 6.116000175476074,-3.375420570373535 6.116000175476074,0 C6.116000175476074,3.375420570373535 3.375420570373535,6.116000175476074 0,6.116000175476074 C-3.375420570373535,6.116000175476074 -6.116000175476074,3.375420570373535 -6.116000175476074,0 C-6.116000175476074,-3.375420570373535 -3.375420570373535,-6.116000175476074 0,-6.116000175476074z"></path></g></g><g transform="matrix(1,0,0,1,953,2646.5)" opacity="1" style="display: block;"><g opacity="1" transform="matrix(1,0,0,1,0,0)"><path fill="rgb(46,48,56)" fill-opacity="1" d=" M-769.5670166015625,-2598.01611328125 C-766.2999877929688,-2596.35009765625 -764.6640014648438,-2594.134033203125 -764.6640014648438,-2591.368896484375 C-764.6640014648438,-2589.986083984375 -765.073974609375,-2588.77587890625 -765.8900146484375,-2587.739013671875 C-766.7080078125,-2586.701904296875 -767.7760009765625,-2586.18310546875 -769.0960083007812,-2586.18310546875 C-770.1019897460938,-2586.18310546875 -770.9190063476562,-2586.324951171875 -771.5469970703125,-2586.60791015625 C-772.176025390625,-2586.89111328125 -772.7880249023438,-2587.26806640625 -773.385009765625,-2587.739013671875 C-773.9829711914062,-2588.2099609375 -774.56298828125,-2588.60302734375 -775.1290283203125,-2588.91796875 C-775.7589721679688,-2589.23193359375 -776.6849975585938,-2589.513916015625 -777.9110107421875,-2589.76611328125 C-779.1370239257812,-2590.01611328125 -780.1259765625,-2590.14404296875 -780.8809814453125,-2590.14404296875 C-785.593994140625,-2590.14404296875 -789.2880249023438,-2588.681884765625 -791.9580078125,-2585.759033203125 C-794.6309814453125,-2582.8359375 -795.9650268554688,-2579.01806640625 -795.9650268554688,-2574.303955078125 C-795.9650268554688,-2569.778076171875 -794.614990234375,-2566.02197265625 -791.9119873046875,-2563.0380859375 C-789.208984375,-2560.052001953125 -785.7520141601562,-2558.55908203125 -781.5399780273438,-2558.55908203125 C-778.4609985351562,-2558.55908203125 -776.166015625,-2558.93603515625 -774.6580200195312,-2559.69091796875 C-774.281005859375,-2559.87890625 -773.7630004882812,-2560.208984375 -773.10302734375,-2560.679931640625 C-772.4429931640625,-2561.152099609375 -771.8300170898438,-2561.512939453125 -771.2639770507812,-2561.764892578125 C-770.697998046875,-2562.014892578125 -770.0079956054688,-2562.14208984375 -769.1900024414062,-2562.14208984375 C-767.6199951171875,-2562.14208984375 -766.3770141601562,-2561.637939453125 -765.4660034179688,-2560.633056640625 C-764.5560302734375,-2559.626953125 -764.0980224609375,-2558.337890625 -764.0980224609375,-2556.76806640625 C-764.0980224609375,-2555.260009765625 -764.97900390625,-2553.844970703125 -766.739013671875,-2552.52490234375 C-768.4990234375,-2551.205078125 -770.823974609375,-2550.15087890625 -773.7150268554688,-2549.365966796875 C-776.6069946289062,-2548.5810546875 -779.68701171875,-2548.18798828125 -782.9550170898438,-2548.18798828125 C-787.7960205078125,-2548.18798828125 -792.052978515625,-2549.319091796875 -795.72998046875,-2551.58203125 C-799.406982421875,-2553.844970703125 -802.2509765625,-2556.970947265625 -804.2620239257812,-2560.962890625 C-806.2750244140625,-2564.9541015625 -807.280029296875,-2569.40087890625 -807.280029296875,-2574.303955078125 C-807.280029296875,-2579.39501953125 -806.22802734375,-2583.919921875 -804.1209716796875,-2587.8798828125 C-802.0159912109375,-2591.840087890625 -799.0770263671875,-2594.93505859375 -795.3060302734375,-2597.1669921875 C-791.5339965820312,-2599.39697265625 -787.260009765625,-2600.513916015625 -782.4829711914062,-2600.513916015625 C-777.1420288085938,-2600.513916015625 -772.8359985351562,-2599.680908203125 -769.5670166015625,-2598.01611328125z"></path></g></g><g transform="matrix(1,0,0,1,953,2646.5)" opacity="1" style="display: block;"><g opacity="1" transform="matrix(1,0,0,1,0,0)"><path fill="rgb(46,48,56)" fill-opacity="1" d=" M-709.344970703125,-2598.616943359375 C-708.2890014648438,-2597.56005859375 -707.7620239257812,-2596.194091796875 -707.7620239257812,-2594.51708984375 C-707.7620239257812,-2594.51708984375 -707.7620239257812,-2555.10107421875 -707.7620239257812,-2555.10107421875 C-707.7620239257812,-2553.486083984375 -708.2890014648438,-2551.800048828125 -709.344970703125,-2550.714111328125 C-710.4030151367188,-2549.6259765625 -711.7379760742188,-2549.0830078125 -713.3519897460938,-2549.0830078125 C-714.968994140625,-2549.0830078125 -716.2880249023438,-2549.60888671875 -717.31298828125,-2550.6669921875 C-718.3380126953125,-2551.721923828125 -718.8829956054688,-2553.39306640625 -718.9439697265625,-2555.009033203125 C-720.4970092773438,-2553.20703125 -722.593017578125,-2551.6689453125 -725.2329711914062,-2550.39599609375 C-727.8740234375,-2549.123046875 -730.6530151367188,-2548.485107421875 -733.572021484375,-2548.485107421875 C-737.8590087890625,-2548.485107421875 -741.7429809570312,-2549.5869140625 -745.2210083007812,-2551.79296875 C-748.7000122070312,-2553.998046875 -751.447998046875,-2557.05810546875 -753.4669799804688,-2560.971923828125 C-755.4869995117188,-2564.885986328125 -756.4959716796875,-2569.325927734375 -756.4959716796875,-2574.297119140625 C-756.4959716796875,-2579.26611328125 -755.5020141601562,-2583.722900390625 -753.5139770507812,-2587.6689453125 C-751.5269775390625,-2591.613037109375 -748.8079833984375,-2594.68798828125 -745.3599853515625,-2596.89404296875 C-741.9130249023438,-2599.097900390625 -738.1079711914062,-2600.201904296875 -733.9450073242188,-2600.201904296875 C-730.9630126953125,-2600.201904296875 -728.1680297851562,-2599.656982421875 -725.5590209960938,-2598.571044921875 C-722.948974609375,-2597.48291015625 -720.7459716796875,-2596.10107421875 -718.9439697265625,-2594.424072265625 C-718.9439697265625,-2594.424072265625 -718.9439697265625,-2594.51708984375 -718.9439697265625,-2594.51708984375 C-718.9439697265625,-2596.132080078125 -718.416015625,-2597.48291015625 -717.3590087890625,-2598.571044921875 C-716.302978515625,-2599.656982421875 -714.968994140625,-2600.201904296875 -713.3519897460938,-2600.201904296875 C-711.7379760742188,-2600.201904296875 -710.4030151367188,-2599.672119140625 -709.344970703125,-2598.616943359375z M-722.2979736328125,-2563.162109375 C-719.7509765625,-2566.111083984375 -718.4769897460938,-2569.823974609375 -718.4769897460938,-2574.297119140625 C-718.4769897460938,-2578.76904296875 -719.7509765625,-2582.4970703125 -722.2979736328125,-2585.47900390625 C-724.844970703125,-2588.4609375 -728.1380004882812,-2589.951904296875 -732.1749877929688,-2589.951904296875 C-736.1510009765625,-2589.951904296875 -739.4140014648438,-2588.4609375 -741.9600219726562,-2585.47900390625 C-744.5070190429688,-2582.4970703125 -745.780029296875,-2578.76904296875 -745.780029296875,-2574.297119140625 C-745.780029296875,-2569.823974609375 -744.52099609375,-2566.111083984375 -742.0059814453125,-2563.162109375 C-739.489990234375,-2560.2099609375 -736.2139892578125,-2558.735107421875 -732.1749877929688,-2558.735107421875 C-728.1380004882812,-2558.735107421875 -724.844970703125,-2560.2099609375 -722.2979736328125,-2563.162109375z"></path></g></g><g transform="matrix(1,0,0,1,953,2646.5)" opacity="1" style="display: block;"><g opacity="1" transform="matrix(1,0,0,1,0,0)"><path fill="rgb(46,48,56)" fill-opacity="1" d=" M-635.7319946289062,-2550.72900390625 C-636.7899780273438,-2549.64111328125 -638.1259765625,-2549.096923828125 -639.739990234375,-2549.096923828125 C-641.3569946289062,-2549.096923828125 -642.6909790039062,-2549.64111328125 -643.7470092773438,-2550.72900390625 C-644.8049926757812,-2551.81494140625 -645.3309936523438,-2553.166015625 -645.3309936523438,-2554.781005859375 C-645.3309936523438,-2554.781005859375 -645.3309936523438,-2593.5859375 -645.3309936523438,-2593.5859375 C-645.3309936523438,-2595.200927734375 -644.8049926757812,-2596.551025390625 -643.7470092773438,-2597.638916015625 C-642.6909790039062,-2598.72509765625 -641.3569946289062,-2599.27001953125 -639.739990234375,-2599.27001953125 C-638.1259765625,-2599.27001953125 -636.7899780273438,-2598.72509765625 -635.7319946289062,-2597.638916015625 C-634.676025390625,-2596.551025390625 -634.1489868164062,-2595.200927734375 -634.1489868164062,-2593.5859375 C-634.1489868164062,-2593.5859375 -634.1489868164062,-2554.781005859375 -634.1489868164062,-2554.781005859375 C-634.1489868164062,-2553.166015625 -634.676025390625,-2551.81494140625 -635.7319946289062,-2550.72900390625z"></path></g></g><g transform="matrix(1,0,0,1,953,2646.5)" opacity="1" style="display: block;"><g opacity="1" transform="matrix(1,0,0,1,0,0)"><path fill="rgb(46,48,56)" fill-opacity="1" d=" M-623.6209716796875,-2559.947021484375 C-623.6209716796875,-2561.56201171875 -622.81298828125,-2562.927978515625 -621.197998046875,-2564.047119140625 C-620.3280029296875,-2564.60595703125 -619.427978515625,-2564.885009765625 -618.4959716796875,-2564.885009765625 C-617.1909790039062,-2564.885009765625 -615.947998046875,-2564.2939453125 -614.7680053710938,-2563.114990234375 C-612.9039916992188,-2561.18896484375 -610.9639892578125,-2559.760986328125 -608.9439697265625,-2558.8291015625 C-606.926025390625,-2557.89697265625 -604.4869995117188,-2557.430908203125 -601.6290283203125,-2557.430908203125 C-596.7839965820312,-2557.616943359375 -594.3610229492188,-2559.448974609375 -594.3610229492188,-2562.927978515625 C-594.3610229492188,-2564.72998046875 -595.1849975585938,-2566.096923828125 -596.8309936523438,-2567.029052734375 C-598.47802734375,-2567.9609375 -601.041015625,-2568.89208984375 -604.5189819335938,-2569.823974609375 C-608.1220092773438,-2570.81689453125 -611.0570068359375,-2571.81103515625 -613.323974609375,-2572.805908203125 C-615.5919799804688,-2573.799072265625 -617.5490112304688,-2575.304931640625 -619.1939697265625,-2577.324951171875 C-620.8410034179688,-2579.343017578125 -621.6640014648438,-2582.06201171875 -621.6640014648438,-2585.47900390625 C-621.6640014648438,-2588.4609375 -620.8109741210938,-2591.053955078125 -619.1019897460938,-2593.260009765625 C-617.3939819335938,-2595.464111328125 -615.156982421875,-2597.174072265625 -612.3920288085938,-2598.385009765625 C-609.6290283203125,-2599.595947265625 -606.6929931640625,-2600.201904296875 -603.5869750976562,-2600.201904296875 C-600.4180297851562,-2600.201904296875 -597.2509765625,-2599.610107421875 -594.0819702148438,-2598.430908203125 C-590.9140014648438,-2597.25 -588.4299926757812,-2595.510986328125 -586.6279907226562,-2593.212890625 C-585.8209838867188,-2592.218994140625 -585.416015625,-2591.10009765625 -585.416015625,-2589.85791015625 C-585.416015625,-2588.428955078125 -586.0079956054688,-2587.2490234375 -587.18701171875,-2586.318115234375 C-588.0579833984375,-2585.633056640625 -589.0499877929688,-2585.2919921875 -590.1680297851562,-2585.2919921875 C-591.5349731445312,-2585.2919921875 -592.6530151367188,-2585.72607421875 -593.5230102539062,-2586.596923828125 C-594.6409912109375,-2587.962890625 -596.0859985351562,-2589.050048828125 -597.8560180664062,-2589.85791015625 C-599.6259765625,-2590.6650390625 -601.6290283203125,-2591.070068359375 -603.8660278320312,-2591.070068359375 C-608.5880126953125,-2591.070068359375 -610.947021484375,-2589.361083984375 -610.947021484375,-2585.945068359375 C-610.947021484375,-2584.577880859375 -610.5139770507812,-2583.47509765625 -609.6430053710938,-2582.636962890625 C-608.7730102539062,-2581.798095703125 -607.6719970703125,-2581.14599609375 -606.3359985351562,-2580.679931640625 C-605.0009765625,-2580.214111328125 -603.1199951171875,-2579.638916015625 -600.697021484375,-2578.9560546875 C-597.3419799804688,-2578.02392578125 -594.5479736328125,-2577.06005859375 -592.3109741210938,-2576.06689453125 C-590.073974609375,-2575.072998046875 -588.1810302734375,-2573.551025390625 -586.6279907226562,-2571.5009765625 C-585.0759887695312,-2569.450927734375 -584.2969970703125,-2566.75 -584.2969970703125,-2563.39501953125 C-584.2969970703125,-2560.35009765625 -585.2000122070312,-2557.694091796875 -587.0009765625,-2555.427001953125 C-588.802001953125,-2553.158935546875 -591.1160278320312,-2551.43505859375 -593.9429931640625,-2550.256103515625 C-596.77001953125,-2549.076904296875 -599.6729736328125,-2548.485107421875 -602.655029296875,-2548.485107421875 C-606.7540283203125,-2548.485107421875 -610.5750122070312,-2549.169921875 -614.1160278320312,-2550.534912109375 C-617.656982421875,-2551.90087890625 -620.5449829101562,-2554.10693359375 -622.781005859375,-2557.15087890625 C-623.3410034179688,-2557.89697265625 -623.6209716796875,-2558.8291015625 -623.6209716796875,-2559.947021484375z"></path></g></g><g transform="matrix(1,0,0,1,953,2646.5)" opacity="1" style="display: block;"><g opacity="1" transform="matrix(1,0,0,1,0,0)"><path fill="rgb(46,48,56)" fill-opacity="1" d=" M-669.0599975585938,-2574.219970703125 C-669.0599975585938,-2574.219970703125 -656.3099975585938,-2590.14501953125 -656.3099975585938,-2590.14501953125 C-655.3040161132812,-2591.408935546875 -654.875,-2592.7939453125 -655.0260009765625,-2594.302001953125 C-655.1749877929688,-2595.81005859375 -655.8809814453125,-2597.06689453125 -657.14599609375,-2598.073974609375 C-658.4089965820312,-2599.0791015625 -659.7919921875,-2599.486083984375 -661.2969970703125,-2599.29296875 C-662.7990112304688,-2599.10107421875 -664.052978515625,-2598.37109375 -665.0590209960938,-2597.10693359375 C-665.0590209960938,-2597.10693359375 -676.2219848632812,-2583.166015625 -676.2219848632812,-2583.166015625 C-676.2219848632812,-2583.166015625 -687.3839721679688,-2597.10693359375 -687.3839721679688,-2597.10693359375 C-688.3900146484375,-2598.37109375 -689.64501953125,-2599.10107421875 -691.14697265625,-2599.29296875 C-692.6519775390625,-2599.486083984375 -694.0349731445312,-2599.0791015625 -695.2979736328125,-2598.073974609375 C-696.56298828125,-2597.06689453125 -697.2680053710938,-2595.81005859375 -697.4169921875,-2594.302001953125 C-697.5679931640625,-2592.7939453125 -697.1400146484375,-2591.408935546875 -696.1339721679688,-2590.14501953125 C-696.1339721679688,-2590.14501953125 -683.3839721679688,-2574.219970703125 -683.3839721679688,-2574.219970703125 C-683.3839721679688,-2574.219970703125 -696.1329956054688,-2558.2958984375 -696.1329956054688,-2558.2958984375 C-697.1380004882812,-2557.032958984375 -697.5670166015625,-2555.64697265625 -697.4180297851562,-2554.138916015625 C-697.2670288085938,-2552.6298828125 -696.5609741210938,-2551.373046875 -695.2979736328125,-2550.367919921875 C-694.0330200195312,-2549.361083984375 -692.6500244140625,-2548.955078125 -691.1480102539062,-2549.14794921875 C-689.6430053710938,-2549.341064453125 -688.3889770507812,-2550.070068359375 -687.3839721679688,-2551.3330078125 C-687.3839721679688,-2551.3330078125 -676.2219848632812,-2565.27490234375 -676.2219848632812,-2565.27490234375 C-676.2219848632812,-2565.27490234375 -665.0599975585938,-2551.3330078125 -665.0599975585938,-2551.3330078125 C-664.0549926757812,-2550.070068359375 -662.801025390625,-2549.341064453125 -661.2960205078125,-2549.14794921875 C-659.7940063476562,-2548.955078125 -658.4099731445312,-2549.361083984375 -657.14501953125,-2550.367919921875 C-655.8820190429688,-2551.373046875 -655.176025390625,-2552.6298828125 -655.0250244140625,-2554.138916015625 C-654.8770141601562,-2555.64697265625 -655.3049926757812,-2557.032958984375 -656.3099975585938,-2558.2958984375 C-656.3099975585938,-2558.2958984375 -669.0599975585938,-2574.219970703125 -669.0599975585938,-2574.219970703125z"></path></g></g><g clip-path="url(#__lottie_element_23)" transform="matrix(1,0,0,1,19.5,-33.5)" opacity="1" style="display: block;"><g clip-path="url(#__lottie_element_43)" style="display: block;" transform="matrix(0.7193397879600525,-0.6946583986282349,0.6946583986282349,0.7193397879600525,-0.3636932373046875,31.235836029052734)" opacity="1"><g transform="matrix(0.7071067690849304,0.7071067690849304,-0.7071067690849304,0.7071067690849304,-1210.1312255859375,2532.14404296875)" opacity="1" style="display: block;"><g opacity="1" transform="matrix(1,0,0,1,-0.5,0.25)"><path fill="rgb(255,130,140)" fill-opacity="1" d=" M-833.4829711914062,-2602.375 C-833.4829711914062,-2602.375 -861.6170043945312,-2574.239990234375 -861.6170043945312,-2574.239990234375 C-861.6170043945312,-2574.239990234375 -897.843017578125,-2610.466064453125 -897.843017578125,-2610.466064453125 C-897.843017578125,-2610.466064453125 -869.7080078125,-2638.60107421875 -869.7080078125,-2638.60107421875 C-865.239013671875,-2643.070068359375 -857.9949951171875,-2643.070068359375 -853.5260009765625,-2638.60107421875 C-853.5260009765625,-2638.60107421875 -833.4829711914062,-2618.556884765625 -833.4829711914062,-2618.556884765625 C-829.0139770507812,-2614.087890625 -829.0139770507812,-2606.843994140625 -833.4829711914062,-2602.375z"></path></g></g></g><g clip-path="url(#__lottie_element_36)" style="display: block;" transform="matrix(0.713250458240509,0.7009092569351196,-0.7009092569351196,0.713250458240509,72.29955291748047,100.86723327636719)" opacity="1"><g transform="matrix(0.7071067690849304,0.7071067690849304,-0.7071067690849304,0.7071067690849304,-1210.1312255859375,2482.14404296875)" opacity="1" style="display: block;"><g opacity="1" transform="matrix(1,0,0,1,-0.25,0.25)"><path fill="rgb(214,62,77)" fill-opacity="1" d=" M-833.4829711914062,-2602.375 C-833.4829711914062,-2602.375 -861.6170043945312,-2574.239990234375 -861.6170043945312,-2574.239990234375 C-861.6170043945312,-2574.239990234375 -897.843017578125,-2610.466064453125 -897.843017578125,-2610.466064453125 C-897.843017578125,-2610.466064453125 -869.7080078125,-2638.60107421875 -869.7080078125,-2638.60107421875 C-865.239013671875,-2643.070068359375 -857.9949951171875,-2643.070068359375 -853.5260009765625,-2638.60107421875 C-853.5260009765625,-2638.60107421875 -833.4829711914062,-2618.556884765625 -833.4829711914062,-2618.556884765625 C-829.0139770507812,-2614.087890625 -829.0139770507812,-2606.843994140625 -833.4829711914062,-2602.375z"></path></g></g></g><g transform="matrix(1,0,0,1,933.72998046875,2677.5)" opacity="1" style="display: none;"><g opacity="1" transform="matrix(1,0,0,1,0,0)"><path fill="rgb(214,62,77)" fill-opacity="1" d=" M-897.843017578125,-2610.466064453125 C-897.843017578125,-2610.466064453125 -861.6170043945312,-2574.239990234375 -861.6170043945312,-2574.239990234375 C-861.6170043945312,-2574.239990234375 -897.843017578125,-2538.014892578125 -897.843017578125,-2538.014892578125 C-897.843017578125,-2538.014892578125 -897.843017578125,-2610.466064453125 -897.843017578125,-2610.466064453125z"></path></g></g><g transform="matrix(-1,0,0,1,-861.593017578125,2677.5)" opacity="1" style="display: none;"><g opacity="1" transform="matrix(1,0,0,1,0,0)"><path fill="rgb(255,74,90)" fill-opacity="1" d=" M-897.843017578125,-2610.466064453125 C-897.843017578125,-2610.466064453125 -876.351318359375,-2574.28955078125 -876.351318359375,-2574.28955078125 C-876.351318359375,-2574.28955078125 -897.843017578125,-2538.014892578125 -897.843017578125,-2538.014892578125 C-897.843017578125,-2538.014892578125 -897.843017578125,-2610.466064453125 -897.843017578125,-2610.466064453125z"></path></g></g><g transform="matrix(-1,0,0,1,-861.843017578125,2677.5)" opacity="1" style="display: block;"><g opacity="1" transform="matrix(1,0,0,1,0,0)"><path fill="rgb(255,74,90)" fill-opacity="1" d=" M-897.843017578125,-2610.716064453125 C-897.843017578125,-2610.716064453125 -934.0549926757812,-2574.41796875 -934.0549926757812,-2574.41796875 C-934.0549926757812,-2574.41796875 -897.843017578125,-2538.014892578125 -897.843017578125,-2538.014892578125 C-897.843017578125,-2538.014892578125 -897.843017578125,-2610.716064453125 -897.843017578125,-2610.716064453125z"></path></g></g></g></g></svg>
